# ProBuilder 4.2.3
# https://unity3d.com/unity/features/worldbuilding/probuilder
# 7/10/2020 2:36:47 PM

mtllib ./lightmapTest2.mtl
o lightmapTest2

g Cube
v 44 0 58
v -1 0 58
v 44 1 58
v -1 1 58
v -1 0 -1
v -1 1 -1
v 44 0 -1
v 44 1 -1

vt 44 0
vt -1 0
vt 44 1
vt -1 1
vt 58 0
vt 58 1
vt 1 0
vt -44 0
vt 1 1
vt -44 1
vt -58 0
vt -58 1
vt -44 58
vt 1 58
vt -44 -1
vt 1 -1
vt 44 -1
vt -1 -1
vt 44 58
vt -1 58

vn 0 0 1
vn -1 0 0
vn 0 0 -1
vn 1 0 0
vn 0 1 0
vn 0 -1 0

usemtl Lava_005PBR
f 3/3/1 4/4/1 2/2/1 1/1/1
f 4/6/2 6/4/2 5/2/2 2/5/2
f 6/9/3 8/10/3 7/8/3 5/7/3
f 8/9/4 3/12/4 1/11/4 7/7/4
f 8/15/5 6/16/5 4/14/5 3/13/5
f 1/19/6 2/20/6 5/18/6 7/17/6

